<svg width="13" height="14" viewBox="0 0 13 14" fill="none" xmlns="http://www.w3.org/2000/svg">
<path fill-rule="evenodd" clip-rule="evenodd" d="M2.16671 3.20825H3.25004V2.53117C3.25004 2.23201 3.49256 1.9895 3.79171 1.9895C4.09086 1.9895 4.33337 2.23201 4.33337 2.53117V3.20825H8.66671V2.53117C8.66671 2.23201 8.90921 1.9895 9.20837 1.9895C9.50754 1.9895 9.75004 2.23201 9.75004 2.53117V3.20825H10.8334C11.4317 3.20825 11.9167 3.69328 11.9167 4.29159V10.7916C11.9167 11.3899 11.4317 11.8749 10.8334 11.8749H2.16671C1.5684 11.8749 1.08337 11.3899 1.08337 10.7916V4.29159C1.08337 3.69328 1.5684 3.20825 2.16671 3.20825ZM2.16671 10.7916V6.45826H10.8334V10.7916H2.16671ZM10.8334 4.29159V5.37492H2.16671V4.29159H10.8334Z" fill="black"/>
</svg>
