<svg width="16" height="16" viewBox="0 0 16 16" fill="none" xmlns="http://www.w3.org/2000/svg">
<path d="M12.3393 4.42828L12.3393 4.42829C12.9901 5.07915 12.9901 6.13444 12.3393 6.7853L8.34517 10.7794C7.69432 11.4302 6.63902 11.4302 5.98816 10.7794L4.07743 8.86865C4.07742 8.86864 4.07742 8.86864 4.07741 8.86863C3.42653 8.21777 3.42654 7.16246 4.07743 6.51161L4.07743 6.5116C4.72831 5.86078 5.78354 5.86078 6.43442 6.5116L6.43444 6.51163L7.16667 7.24386L9.98213 4.42839C9.98217 4.42835 9.98221 4.42831 9.98224 4.42827C10.0627 4.34775 10.1502 4.27664 10.243 4.21535L12.3393 4.42828ZM12.3393 4.42828C11.7692 3.85818 10.8906 3.788 10.2434 4.21512L12.3393 4.42828ZM1.33333 3.83333C1.33333 2.45262 2.45262 1.33333 3.83333 1.33333H12.1667C13.5474 1.33333 14.6667 2.45262 14.6667 3.83333V12.1667C14.6667 13.5474 13.5474 14.6667 12.1667 14.6667H3.83333C2.45262 14.6667 1.33333 13.5474 1.33333 12.1667V3.83333Z" fill="black" stroke="black" stroke-width="1.66667"/>
</svg>
