<svg width="375" height="205" viewBox="0 0 375 205" fill="none" xmlns="http://www.w3.org/2000/svg">
<path d="M-9 171.291H375.168" stroke="#263238" stroke-width="0.820084" stroke-linecap="round" stroke-linejoin="round"/>
<path d="M119.499 171.307L99.2181 188.947L126.191 190.571L144.036 172.521L119.499 171.307Z" fill="white" stroke="#263238" stroke-width="0.820084" stroke-linecap="round" stroke-linejoin="round"/>
<path d="M144.036 172.521L170 173.734L153.77 192.596L126.191 190.571L144.036 172.521Z" fill="white" stroke="#263238" stroke-width="0.820084" stroke-linecap="round" stroke-linejoin="round"/>
<path d="M118.162 176.703L133.694 177.851" stroke="#263238" stroke-width="0.820084" stroke-linecap="round" stroke-linejoin="round"/>
<path d="M111.536 180.82L131.185 181.96" stroke="#263238" stroke-width="0.820084" stroke-linecap="round" stroke-linejoin="round"/>
<path d="M108.567 184.248L127.527 185.617" stroke="#263238" stroke-width="0.820084" stroke-linecap="round" stroke-linejoin="round"/>
<path d="M134.383 186.528L154.033 187.906" stroke="#263238" stroke-width="0.820084" stroke-linecap="round" stroke-linejoin="round"/>
<path d="M99.2183 188.947L98.8164 190.571L126.191 192.195V190.571L99.2183 188.947Z" fill="#263238" stroke="#263238" stroke-width="0.820084" stroke-linecap="round" stroke-linejoin="round"/>
<path d="M126.191 191.178V192.195L154.377 194.22L169.795 175.153L169.188 174.145L153.77 192.596L126.191 191.178Z" fill="#263238" stroke="#263238" stroke-width="0.820084" stroke-linecap="round" stroke-linejoin="round"/>
<path d="M83.0461 164.369C89.8308 164.369 95.3309 162.607 95.3309 160.433C95.3309 158.259 89.8308 156.496 83.0461 156.496C76.2613 156.496 70.7612 158.259 70.7612 160.433C70.7612 162.607 76.2613 164.369 83.0461 164.369Z" fill="white" stroke="black" stroke-width="0.820084" stroke-linecap="round" stroke-linejoin="round"/>
<path d="M84.2352 145.663L85.8754 142.219L86.5889 145.917L83.5217 174.891C83.5064 175.045 83.4606 175.195 83.387 175.331C83.3134 175.468 83.2135 175.588 83.093 175.686C82.9725 175.784 82.8338 175.856 82.685 175.9C82.5362 175.944 82.3802 175.957 82.226 175.94C81.9152 175.907 81.6301 175.752 81.4334 175.51C81.2366 175.267 81.1442 174.956 81.1763 174.645L84.2352 145.663Z" fill="white" stroke="black" stroke-width="0.820084" stroke-linecap="round" stroke-linejoin="round"/>
<path d="M81.2091 174.645C81.1941 174.946 81.2952 175.242 81.4916 175.472C81.6881 175.701 81.965 175.847 82.2654 175.878C82.5657 175.91 82.8668 175.825 83.1066 175.641C83.3463 175.457 83.5067 175.189 83.5545 174.891L84.0876 169.88L81.7422 169.659L81.2091 174.645Z" fill="white" stroke="black" stroke-width="0.820084" stroke-linecap="round" stroke-linejoin="round"/>
<path d="M82.2178 175.94C82.372 175.958 82.528 175.944 82.6768 175.9C82.8256 175.856 82.9643 175.784 83.0848 175.686C83.2053 175.588 83.3053 175.468 83.3788 175.331C83.4524 175.195 83.4982 175.045 83.5136 174.891L83.9072 171.2L81.5618 170.93L81.1681 174.645C81.136 174.956 81.2284 175.267 81.4252 175.51C81.622 175.752 81.907 175.907 82.2178 175.94Z" fill="white" stroke="black" stroke-width="0.820084" stroke-linecap="round" stroke-linejoin="round"/>
<path d="M84.2353 145.663L84.2189 145.852L86.5643 146.122L86.5807 145.917L85.8672 142.219L84.2353 145.663Z" fill="white" stroke="black" stroke-width="0.820084" stroke-linecap="round" stroke-linejoin="round"/>
<path d="M91.5585 148.189L94.1336 145.376L93.7318 149.124L82.2506 175.891C82.126 176.178 81.8936 176.404 81.6035 176.521C81.3134 176.638 80.989 176.635 80.7006 176.515C80.4138 176.39 80.1876 176.158 80.071 175.867C79.9543 175.577 79.9566 175.253 80.0774 174.965L91.5585 148.189Z" fill="black" stroke="black" stroke-width="0.820084" stroke-linecap="round" stroke-linejoin="round"/>
<path d="M80.0528 174.965C79.9299 175.253 79.9265 175.578 80.0434 175.869C80.1603 176.159 80.3879 176.392 80.6761 176.515C80.9642 176.637 81.2894 176.641 81.5801 176.524C81.8708 176.407 82.1031 176.179 82.226 175.891L84.2106 171.266L82.0292 170.356L80.0528 174.965Z" fill="white" stroke="black" stroke-width="0.820084" stroke-linecap="round" stroke-linejoin="round"/>
<path d="M80.676 176.515C80.9645 176.635 81.2888 176.638 81.5789 176.521C81.869 176.404 82.1015 176.178 82.226 175.891L83.6694 172.504L81.5043 171.553L80.0282 174.989C79.9165 175.278 79.9217 175.599 80.0426 175.883C80.1636 176.168 80.3908 176.395 80.676 176.515Z" fill="white" stroke="black" stroke-width="0.820084" stroke-linecap="round" stroke-linejoin="round"/>
<path d="M91.5587 148.189L91.4849 148.361L93.6499 149.312L93.7319 149.124L94.1337 145.376L91.5587 148.189Z" fill="white" stroke="black" stroke-width="0.820084" stroke-linecap="round" stroke-linejoin="round"/>
<path d="M80.8401 173.685L78.4783 173.603L79.405 144.482C79.4092 144.327 79.444 144.175 79.5074 144.034C79.5708 143.893 79.6616 143.765 79.7744 143.659C79.8872 143.553 80.0199 143.471 80.1648 143.416C80.3097 143.362 80.464 143.337 80.6187 143.342C80.7734 143.346 80.9258 143.381 81.067 143.445C81.2082 143.508 81.3355 143.599 81.4414 143.712C81.5474 143.824 81.63 143.957 81.6844 144.102C81.7389 144.247 81.7641 144.401 81.7586 144.556L80.8401 173.685Z" fill="black" stroke="black" stroke-width="0.820084" stroke-linecap="round" stroke-linejoin="round"/>
<path d="M81.7585 144.556C81.7449 144.259 81.6196 143.978 81.4078 143.769C81.1959 143.56 80.9131 143.439 80.6158 143.43C80.3186 143.42 80.0287 143.524 79.8042 143.719C79.5797 143.914 79.4371 144.186 79.4049 144.482L79.2408 149.517L81.6027 149.567L81.7585 144.556Z" fill="white" stroke="black" stroke-width="0.820084" stroke-linecap="round" stroke-linejoin="round"/>
<path d="M80.6186 143.342C80.4639 143.337 80.3096 143.362 80.1647 143.416C80.0198 143.471 79.8871 143.553 79.7743 143.659C79.6615 143.765 79.5707 143.893 79.5073 144.034C79.4439 144.175 79.4091 144.327 79.4049 144.482L79.2819 148.197L81.6437 148.287L81.7585 144.556C81.764 144.401 81.7388 144.247 81.6843 144.102C81.6299 143.957 81.5473 143.824 81.4413 143.712C81.3354 143.599 81.2081 143.508 81.0669 143.445C80.9257 143.381 80.7733 143.346 80.6186 143.342Z" fill="white" stroke="black" stroke-width="0.820084" stroke-linecap="round" stroke-linejoin="round"/>
<path d="M83.0461 164.369C76.2558 164.369 70.7449 162.606 70.7449 160.433V188.242C70.7449 190.415 76.2394 192.178 83.0461 192.178C89.8528 192.178 95.3474 190.415 95.3474 188.242V160.433C95.3228 162.606 89.8282 164.369 83.0461 164.369Z" fill="black" stroke="black" stroke-width="0.820084" stroke-linecap="round" stroke-linejoin="round"/>
<path d="M206.78 126.957C205.304 140.259 204.394 158.94 204.32 171.323H285.312C285.23 158.907 284.319 140.259 282.851 126.957C281.31 113.056 285.631 108.095 288.412 91.7425C291.192 75.39 289.65 40.4545 287.181 37.0511C286.058 35.5093 283.409 35.0501 280.842 35.0091C278.992 41.2736 275.434 46.8991 270.567 51.255C257.699 62.7935 233.892 66.1149 217.261 50.3693C212.879 46.2298 209.815 40.8897 208.453 35.0173C205.993 35.0911 203.533 35.575 202.434 37.0511C199.974 40.4545 198.416 75.3654 201.196 91.7425C203.976 108.12 208.322 113.056 206.78 126.957Z" fill="black" stroke="black" stroke-width="0.820084" stroke-linecap="round" stroke-linejoin="round"/>
<path d="M278.849 15.1139C281.646 29.6048 277.611 41.9962 268.648 50.0331C256.756 60.6941 234.737 63.7613 219.402 49.213C204.066 34.6647 211.775 11.1119 217.671 11.1119C223.568 11.1119 277.833 9.93916 278.849 15.1139Z" fill="black" stroke="black" stroke-width="0.820084" stroke-linecap="round" stroke-linejoin="round"/>
<path d="M197.153 170.569C197.153 170.569 188.698 171.553 187.517 171.553C186.336 171.553 185.745 172.931 187.32 174.309C188.895 175.686 194.209 174.899 194.209 174.899L197.153 170.569Z" fill="white" stroke="black" stroke-width="0.820084" stroke-linecap="round" stroke-linejoin="round"/>
<path d="M196.3 61.9324V70.8139C196.3 70.8139 181.358 78.4161 175.06 80.7779C168.761 83.1398 164.308 85.2392 163.521 88.905C162.734 92.5707 155.132 126.678 154.607 130.869C154.082 135.059 150.146 139.004 150.146 141.358C150.08 142.519 150.259 143.681 150.67 144.769C150.67 144.769 152.507 153.421 158.797 156.833C165.088 160.244 170.336 156.012 173.223 153.683C176.109 151.354 178.963 145.294 178.963 145.294C178.963 145.294 176.864 165.493 176.601 167.321C176.435 168.627 176.347 169.942 176.339 171.258H251.606C251.456 155.577 252.244 139.902 253.968 124.316C255.002 114.664 253.148 84.4519 250.294 80.0317C247.44 75.6114 239.805 73.2168 233.253 71.3798C226.7 69.5428 218.303 67.9682 218.303 67.9682L218.04 64.5567L196.3 61.9324Z" fill="#FF5B42" stroke="black" stroke-width="0.820084" stroke-linecap="round" stroke-linejoin="round"/>
<path d="M173.69 113.081L172.698 107.037" stroke="black" stroke-width="0.820084" stroke-linecap="round" stroke-linejoin="round"/>
<path d="M178.996 145.327L174.313 116.853" stroke="black" stroke-width="0.820084" stroke-linecap="round" stroke-linejoin="round"/>
<path d="M206.535 92.0869C224.576 94.3421 243.291 77.4894 245.636 75.9477C242.093 73.9385 237.476 72.5443 233.286 71.3716C226.725 69.5346 218.336 67.96 218.336 67.96L218.073 64.5485L196.3 61.9324V70.8139C196.3 70.8139 186.459 75.8164 179.398 78.9656C186.701 86.2806 196.266 90.9058 206.535 92.0869Z" fill="white" stroke="black" stroke-width="0.820084" stroke-linecap="round" stroke-linejoin="round"/>
<path d="M196.3 70.814C196.057 74.4184 195.621 78.0072 194.996 81.5653" stroke="black" stroke-width="0.820084" stroke-linecap="round" stroke-linejoin="round"/>
<path d="M218.335 67.96C218.335 67.96 218.86 75.5622 219.648 78.1865" stroke="black" stroke-width="0.820084" stroke-linecap="round" stroke-linejoin="round"/>
<path d="M225.831 4.9366C221.009 2.18112 210.963 0.196513 205.526 1.32003C199.728 2.50915 192.126 5.01861 186.139 10.2589C174.928 20.1 179.062 35.0501 180.046 36.4196L181.03 37.7974C180.562 41.5814 179.838 45.3295 178.865 49.0161C177.093 56.0934 185.745 62.9575 196.365 64.9421C206.986 66.9267 224.101 65.3358 235.311 61.998C246.522 58.6603 248.506 49.7952 244.562 36.6164C240.617 23.4377 236.361 11.5055 229.874 7.38045C228.423 6.45375 227.069 5.64187 225.831 4.9366Z" fill="#B76F00" stroke="black" stroke-width="0.820084" stroke-linecap="round" stroke-linejoin="round"/>
<path d="M204.722 17.1313C205.528 16.9266 206.352 16.8003 207.182 16.754" stroke="black" stroke-width="0.820084" stroke-linecap="round" stroke-linejoin="round"/>
<path d="M183.58 37.0101C183.58 37.0101 180.833 36.0342 182.006 32.0896C182.965 28.8913 193.659 21.0267 201.958 17.976" stroke="black" stroke-width="0.820084" stroke-linecap="round" stroke-linejoin="round"/>
<path d="M202.409 10.2671C203.312 10.1687 204.246 10.1031 205.222 10.0703" stroke="black" stroke-width="0.820084" stroke-linecap="round" stroke-linejoin="round"/>
<path d="M179.619 28.9897C179.619 28.9897 182.728 13.9329 199.851 10.6936" stroke="black" stroke-width="0.820084" stroke-linecap="round" stroke-linejoin="round"/>
<path d="M212.972 7.07703C211.43 9.93092 209.593 13.8017 209.151 16.754" stroke="black" stroke-width="0.820084" stroke-linecap="round" stroke-linejoin="round"/>
<path d="M215.252 3.18164C215.252 3.18164 215.014 3.55067 214.629 4.19034" stroke="black" stroke-width="0.820084" stroke-linecap="round" stroke-linejoin="round"/>
<path d="M226.085 13.8591C232.238 19.5385 236.952 26.5995 239.838 34.4596" stroke="black" stroke-width="0.820084" stroke-linecap="round" stroke-linejoin="round"/>
<path d="M219.582 9.08624C221.291 10.0332 222.904 11.1456 224.396 12.4076" stroke="black" stroke-width="0.820084" stroke-linecap="round" stroke-linejoin="round"/>
<path d="M242.651 54.5845C241.094 57.3223 238.532 59.3461 235.508 60.2267" stroke="black" stroke-width="0.820084" stroke-linecap="round" stroke-linejoin="round"/>
<path d="M226.659 22.265C226.659 22.265 244.562 39.372 244.168 48.8193C244.128 49.9002 243.965 50.9731 243.684 52.0176" stroke="black" stroke-width="0.820084" stroke-linecap="round" stroke-linejoin="round"/>
<path d="M230.005 47.0315C230.005 47.0315 235.508 50.1724 233.154 55.8802C230.801 61.588 227.053 59.9806 227.053 59.9806" stroke="black" stroke-width="0.820084" stroke-linecap="round" stroke-linejoin="round"/>
<path d="M208.601 20.4772C204.185 24.9306 199.173 28.7503 193.708 31.8271L184.253 37.2643C184.253 37.2643 189.928 58.2994 192.527 62.3179C195.127 66.3363 199.613 72.2409 206.001 72.2409C212.39 72.2409 221.837 63.0231 222.305 61.3747C222.772 59.7264 224.904 51.2057 224.904 51.2057C225.971 50.5323 226.798 49.5393 227.266 48.3682C227.578 47.0513 227.737 45.703 227.742 44.3498C227.742 44.3498 217.081 34.189 213.325 29.6949C211.065 27.025 209.448 23.8712 208.601 20.4772Z" fill="white" stroke="black" stroke-width="0.820084" stroke-linecap="round" stroke-linejoin="round"/>
<path d="M200.942 42.1684L185.188 41.1187C185.049 41.1085 184.91 41.1304 184.782 41.1827C184.653 41.2351 184.538 41.3164 184.446 41.4203C184.354 41.5243 184.287 41.6481 184.251 41.7821C184.214 41.9162 184.21 42.0568 184.236 42.193C184.712 44.5795 185.926 49.9346 187.566 51.214C189.698 52.8541 195.988 52.5999 197.268 52.5999C199.982 52.5999 201.565 45.2601 201.737 44.4401C201.741 44.3882 201.741 44.3361 201.737 44.2842V43.1033C201.745 42.8763 201.668 42.6546 201.521 42.4816C201.373 42.3086 201.167 42.1969 200.942 42.1684V42.1684Z" stroke="black" stroke-width="1.64017" stroke-linecap="round" stroke-linejoin="round"/>
<path d="M205.862 42.6195L221.649 43.0459C221.786 43.0512 221.919 43.0878 222.04 43.153C222.16 43.2182 222.264 43.3103 222.344 43.422C222.423 43.5338 222.475 43.6623 222.497 43.7976C222.519 43.9328 222.509 44.0713 222.469 44.2022C221.78 46.5313 220.066 51.747 218.311 52.8623C216.039 54.3139 209.798 53.4528 208.527 53.338C205.821 53.0837 204.927 45.6292 204.837 44.7927C204.829 44.7411 204.829 44.6885 204.837 44.6369L204.919 43.4642C204.925 43.3467 204.955 43.2317 205.005 43.1256C205.056 43.0195 205.128 42.9245 205.215 42.8461C205.303 42.7676 205.405 42.7072 205.516 42.6683C205.627 42.6294 205.745 42.6128 205.862 42.6195Z" stroke="black" stroke-width="1.64017" stroke-linecap="round" stroke-linejoin="round"/>
<path d="M200.933 42.1684L205.854 42.6194" stroke="black" stroke-width="1.64017" stroke-linecap="round" stroke-linejoin="round"/>
<path d="M202.057 44.03L204.853 44.1202" stroke="black" stroke-width="1.64017" stroke-linecap="round" stroke-linejoin="round"/>
<path d="M222.666 43.5954L225.2 41.9388" stroke="black" stroke-width="1.64017" stroke-linecap="round" stroke-linejoin="round"/>
<path d="M213.243 46.1294C213.243 47.2366 212.734 48.1387 212.111 48.1387C211.488 48.1387 210.971 47.2366 210.971 46.1294C210.971 45.0223 211.48 44.1202 212.111 44.1202C212.743 44.1202 213.243 45.0141 213.243 46.1294Z" fill="#263238"/>
<path d="M195.947 45.6866C195.947 46.8019 195.439 47.6958 194.816 47.6958C194.192 47.6958 193.676 46.8019 193.676 45.6866C193.676 44.5712 194.184 43.6855 194.816 43.6855C195.447 43.6855 195.947 44.5712 195.947 45.6866Z" fill="#263238"/>
<path d="M201.68 46.9823C201.68 46.9823 199.711 54.8469 199.449 55.7654C199.187 56.6839 200.63 57.6024 203.254 56.6839" stroke="black" stroke-width="0.820084" stroke-linecap="round" stroke-linejoin="round"/>
<path d="M199.449 61.0139C199.449 61.0139 204.173 62.1867 207.847 60.7515" stroke="black" stroke-width="0.820084" stroke-linecap="round" stroke-linejoin="round"/>
<path d="M207.847 41.2089C207.847 41.2089 210.463 38.191 218.729 41.0777" stroke="black" stroke-width="0.820084" stroke-linecap="round" stroke-linejoin="round"/>
<path d="M199.843 40.5528C199.843 40.5528 194.996 36.7477 189.485 39.7328" stroke="black" stroke-width="0.820084" stroke-linecap="round" stroke-linejoin="round"/>
<path d="M240.191 99.8695C240.191 99.8695 239.912 131.246 239.371 137.462C238.829 143.678 240.191 149.091 246.292 152.338C252.394 155.586 260.143 155.315 262.636 154.504C265.129 153.692 273.995 149.091 272.887 142.063C271.78 135.035 264.301 111.498 260.972 100.411C257.642 89.3232 257.093 84.1813 252.656 80.655C248.219 77.1286 246.866 76.1773 242.987 78.8836" fill="#FF5B42"/>
<path d="M240.191 99.8695C240.191 99.8695 239.912 131.246 239.371 137.462C238.829 143.678 240.191 149.091 246.292 152.338C252.394 155.586 260.143 155.315 262.636 154.504C265.129 153.692 273.995 149.091 272.887 142.063C271.78 135.035 264.301 111.498 260.972 100.411C257.642 89.3232 257.093 84.1813 252.656 80.655C248.219 77.1286 246.866 76.1773 242.987 78.8836" stroke="black" stroke-width="0.820084" stroke-linecap="round" stroke-linejoin="round"/>
<path d="M143.06 167.092L146.472 162.114C146.472 162.114 155.919 159.227 159.593 157.128C163.267 155.028 165.629 149.001 161.955 145.064C158.281 141.128 152.253 139.824 148.054 142.965C143.855 146.106 142.314 151.887 139.927 153.454C137.541 155.02 127.864 157.39 125.24 157.915C122.615 158.44 121.566 160.539 122.09 162.376C122.615 164.213 124.452 171.553 125.764 172.603C127.077 173.652 131.505 176.802 134.679 176.802C137.852 176.802 140.977 173.128 142.059 172.865C143.142 172.603 145.947 169.978 143.06 167.092Z" fill="white" stroke="black" stroke-width="0.820084" stroke-linecap="round" stroke-linejoin="round"/>
<path d="M136.836 158.694C136.836 158.694 135.597 170.249 136.015 170.692C136.48 171.037 137.014 171.277 137.581 171.393C138.148 171.509 138.733 171.499 139.296 171.364C140.641 171.028 142.429 162.286 142.429 160.49C142.291 159.04 141.873 157.631 141.198 156.341" stroke="black" stroke-width="0.820084" stroke-linecap="round" stroke-linejoin="round"/>
<path d="M128.979 159.588C128.979 159.588 132.793 166.436 134.252 167.444L135.712 168.453" stroke="black" stroke-width="0.820084" stroke-linecap="round" stroke-linejoin="round"/>
<path d="M124.83 163.295C124.83 163.295 128.643 170.356 130.57 171.258C132.497 172.16 136.852 173.833 141.231 173.497" stroke="black" stroke-width="0.820084" stroke-linecap="round" stroke-linejoin="round"/>
<path d="M129.594 148.55L134.26 167.412L135.605 167.854L135.835 165.837L131.841 147.984C131.803 147.832 131.733 147.69 131.638 147.566C131.543 147.441 131.423 147.338 131.287 147.261C131.15 147.184 131 147.136 130.844 147.119C130.689 147.103 130.531 147.118 130.381 147.164C130.097 147.25 129.857 147.441 129.711 147.699C129.564 147.957 129.523 148.262 129.594 148.55Z" fill="#263238" stroke="black" stroke-width="0.820084" stroke-linecap="round" stroke-linejoin="round"/>
<path d="M127.864 173.948C127.864 173.948 132.784 175.629 134.031 175.85C135.611 176.124 137.236 175.971 138.738 175.407" stroke="black" stroke-width="0.820084" stroke-linecap="round" stroke-linejoin="round"/>
<path d="M143.06 167.092C142.83 167.466 142.515 167.78 142.14 168.008C141.765 168.236 141.341 168.372 140.903 168.404" stroke="black" stroke-width="0.820084" stroke-linecap="round" stroke-linejoin="round"/>
<path d="M244.406 144.621C244.406 144.621 215.703 163.483 214.112 164.303C212.521 165.124 196.8 169.413 194.43 170.79C192.06 172.168 190.494 178.073 189.51 180.033C188.525 181.993 187.541 187.512 187.541 187.512C187.893 187.878 188.325 188.157 188.803 188.328C189.281 188.499 189.793 188.556 190.297 188.496C192.068 188.299 194.036 180.82 194.036 180.82L197.965 175.12C197.965 175.12 195.406 180.82 195.406 182.198C195.406 183.575 194.43 187.315 194.43 187.938C194.43 188.562 195.603 189.316 197.177 188.529C198.752 187.741 199.933 181.837 199.933 181.837L203.279 176.334C203.279 176.334 200.72 184.002 199.933 185.576C199.146 187.151 198.949 187.741 201.114 187.545C203.279 187.348 203.476 184.986 204.066 183.444C204.657 181.902 206.034 178.926 206.034 178.926L209.962 176.17C209.962 176.17 207.412 181.673 206.625 183.051C205.837 184.428 205.05 184.822 207.806 184.822C210.561 184.822 212.324 178.729 212.324 178.729C213.348 177.992 214.334 177.204 215.277 176.367C216.097 175.547 219.016 171.053 219.016 171.053C219.016 171.053 254.026 159.252 258.159 157.284C262.292 155.315 262.677 152.363 261.103 149.813C259.528 147.262 252.607 141.259 244.406 144.621Z" fill="white" stroke="black" stroke-width="0.820084" stroke-linecap="round" stroke-linejoin="round"/>
<path d="M247.309 203.832L221.952 182.673H267.171L247.309 203.832Z" fill="white" stroke="black" stroke-width="0.820084" stroke-linecap="round" stroke-linejoin="round"/>
<path d="M248.375 201.273L238.083 191.99H254.427L248.375 201.273Z" fill="black" stroke="black" stroke-width="0.820084" stroke-linecap="round" stroke-linejoin="round"/>
<path d="M323.995 203.832H247.309L259.003 155.176H335.689L323.995 203.832Z" fill="white" stroke="black" stroke-width="0.820084" stroke-linecap="round" stroke-linejoin="round"/>
<path d="M329.563 180.705C315.351 182.96 301.681 191.366 284.894 196.287C272.693 199.84 260.159 202.124 247.49 203.102L247.309 203.856H323.995L329.563 180.705Z" fill="black" stroke="black" stroke-width="0.820084" stroke-linecap="round" stroke-linejoin="round"/>
<path d="M293.431 184.248C296.397 184.248 298.802 182.408 298.802 180.139C298.802 177.87 296.397 176.031 293.431 176.031C290.464 176.031 288.059 177.87 288.059 180.139C288.059 182.408 290.464 184.248 293.431 184.248Z" fill="white" stroke="black" stroke-width="0.820084" stroke-linecap="round" stroke-linejoin="round"/>
</svg>
