<svg width="20" height="20" viewBox="0 0 20 20" fill="none" xmlns="http://www.w3.org/2000/svg">
<path d="M9.16823 12.9167C9.16823 13.3769 9.54131 13.75 10.0016 13.75C10.4617 13.75 10.8349 13.3769 10.8349 12.9167V10.8333H12.9182C13.3784 10.8333 13.7516 10.4602 13.7516 10C13.7516 9.53975 13.3784 9.16667 12.9182 9.16667H10.8349V7.08333C10.8349 6.6231 10.4617 6.25 10.0016 6.25C9.54131 6.25 9.16823 6.6231 9.16823 7.08333V9.16667H7.08486C6.62462 9.16667 6.25153 9.53975 6.25153 10C6.25153 10.4602 6.62462 10.8333 7.08486 10.8333H9.16823V12.9167Z" fill="black"/>
<path fill-rule="evenodd" clip-rule="evenodd" d="M5.83495 2.5C3.994 2.5 2.50162 3.99238 2.50162 5.83333V14.1667C2.50162 16.0076 3.994 17.5 5.83495 17.5H14.1683C16.0092 17.5 17.5017 16.0076 17.5017 14.1667V5.83333C17.5017 3.99238 16.0092 2.5 14.1683 2.5H5.83495ZM15.835 5.83333C15.835 4.91286 15.0887 4.16667 14.1683 4.16667H5.83495C4.91448 4.16667 4.16828 4.91286 4.16828 5.83333V14.1667C4.16828 15.0872 4.91448 15.8333 5.83495 15.8333H14.1683C15.0887 15.8333 15.835 15.0872 15.835 14.1667V5.83333Z" fill="black"/>
</svg>
