<svg width="20" height="20" viewBox="0 0 20 20" fill="none" xmlns="http://www.w3.org/2000/svg">
<path fill-rule="evenodd" clip-rule="evenodd" d="M5.83333 2.5C3.99238 2.5 2.5 3.99238 2.5 5.83333V14.1667C2.5 16.0076 3.99238 17.5 5.83333 17.5H14.1667C16.0076 17.5 17.5 16.0076 17.5 14.1667V5.83333C17.5 3.99238 16.0076 2.5 14.1667 2.5H5.83333ZM15.8334 5.83333C15.8334 4.91286 15.0871 4.16667 14.1667 4.16667H5.83333C4.91286 4.16667 4.16667 4.91286 4.16667 5.83333V14.1667C4.16667 15.0872 4.91286 15.8333 5.83333 15.8333H14.1667C15.0871 15.8333 15.8334 15.0872 15.8334 14.1667V5.83333Z" fill="black"/>
</svg>
